<?xml version="1.0" encoding="utf-8"?>
<!-- Generator: Adobe Illustrator 21.0.2, SVG Export Plug-In . SVG Version: 6.00 Build 0)  -->
<svg version="1.1" id="Layer_1" xmlns="http://www.w3.org/2000/svg" xmlns:xlink="http://www.w3.org/1999/xlink" x="0px" y="0px"
	 width="594.5px" height="254.1px" viewBox="0 0 594.5 254.1" style="enable-background:new 0 0 594.5 254.1;" xml:space="preserve"
	>
<style type="text/css">
	.Drop_x0020_Shadow{fill:none;}
	.Outer_x0020_Glow_x0020_5_x0020_pt{fill:none;}
	.Blue_x0020_Neon{fill:none;stroke:#8AACDA;stroke-width:7;stroke-linecap:round;stroke-linejoin:round;}
	.Chrome_x0020_Highlight{fill:url(#SVGID_1_);stroke:#FFFFFF;stroke-width:0.3629;stroke-miterlimit:1;}
	.Jive_GS{fill:#FFDD00;}
	.Alyssa_GS{fill:#A6D0E4;}
	.st0{fill:#307EB2;}
	.st1{fill:none;stroke:#307EB2;stroke-width:8;stroke-miterlimit:10;}
	.st2{fill:#0E4C87;}
	.st3{fill:#FFFFFF;stroke:#484748;stroke-width:0.9981;stroke-miterlimit:10;}
	.st4{fill:#E3E1DC;}
	.st5{fill:none;stroke:#FFFFFF;stroke-width:6;stroke-miterlimit:10;}
	.st6{fill:#FFFFFF;stroke:#484748;stroke-width:0.9994;stroke-miterlimit:10;}
	.st7{fill:#FFFFFF;stroke:#484748;stroke-width:1.0008;stroke-miterlimit:10;}
	.st8{fill:#333333;}
</style>
<linearGradient id="SVGID_1_" gradientUnits="userSpaceOnUse" x1="-174.8492" y1="-99.8313" x2="-174.8492" y2="-100.8313">
	<stop  offset="0" style="stop-color:#656565"/>
	<stop  offset="0.618" style="stop-color:#1B1B1B"/>
	<stop  offset="0.6292" style="stop-color:#545454"/>
	<stop  offset="0.9831" style="stop-color:#3E3E3E"/>
</linearGradient>
<polyline class="st0" points="239,75.7 241.7,57.5 223.4,54.7 "/>
<line class="st1" x1="234.7" y1="62.6" x2="164.5" y2="114.4"/>
<polyline class="st0" points="239,153 241.7,171.3 223.4,174.1 "/>
<line class="st1" x1="234.7" y1="166.1" x2="164.5" y2="114.4"/>
<polyline class="st0" points="445.4,58.6 457.4,46.6 445.4,34.6 "/>
<line class="st1" x1="449.4" y1="46.6" x2="369.4" y2="46.6"/>
<polyline class="st0" points="453.2,139.1 456,120.8 437.7,118 "/>
<line class="st1" x1="448.9" y1="126" x2="378.8" y2="177.7"/>
<polyline class="st0" points="453.2,216.3 456,234.6 437.7,237.4 "/>
<line class="st1" x1="448.9" y1="229.5" x2="378.8" y2="177.7"/>
<g>
	<g>
		<path class="st2" d="M445.4,58.6"/>
		<path class="st2" d="M445.4,34.6"/>
	</g>
</g>
<path class="st3" d="M384.7,98.7h-127c-4.4,0-8-3.6-8-8v-82c0-4.4,3.6-8,8-8h127c4.4,0,8,3.6,8,8v82
	C392.7,95.1,389.1,98.7,384.7,98.7z"/>
<path class="st4" d="M378.4,91H264.3c-3.1,0-5.7-2.5-5.7-5.7V52c0-3.1,2.5-5.7,5.7-5.7h114.2c3.1,0,5.7,2.5,5.7,5.7v33.4
	C384.1,88.5,381.5,91,378.4,91z"/>
<g>
	<g>
		<path class="st2" d="M453.2,139.1"/>
		<path class="st2" d="M437.7,118"/>
	</g>
</g>
<g>
	<g>
		<path class="st2" d="M453.2,216.3"/>
		<path class="st2" d="M437.7,237.4"/>
	</g>
</g>
<path class="st5" d="M238.2,60"/>
<path class="st2" d="M239,75.7"/>
<path class="st2" d="M223.4,54.7"/>
<path class="st5" d="M238.2,168.7"/>
<path class="st2" d="M239,153"/>
<path class="st2" d="M223.4,174.1"/>
<path class="st6" d="M585.7,75.7h-116c-4.4,0-8-3.6-8-8v-44c0-4.4,3.6-8,8-8h116c4.4,0,8,3.6,8,8v44
	C593.7,72.1,590.1,75.7,585.7,75.7z"/>
<path class="st6" d="M585.7,156.7h-116c-4.4,0-8-3.6-8-8v-44c0-4.4,3.6-8,8-8h116c4.4,0,8,3.6,8,8v44
	C593.7,153.1,590.1,156.7,585.7,156.7z"/>
<path class="st6" d="M585.7,253.7h-116c-4.4,0-8-3.6-8-8v-44c0-4.4,3.6-8,8-8h116c4.4,0,8,3.6,8,8v44
	C593.7,250.1,590.1,253.7,585.7,253.7z"/>
<path class="st7" d="M169.6,145.7H8.7c-4.4,0-8-3.6-8-8v-44c0-4.4,3.6-8,8-8h161c4.4,0,8,3.6,8,8v44
	C177.7,142.1,174.1,145.7,169.6,145.7z"/>
<g>
	<g>
		<path class="st8" d="M275.1,53.6v0.3c0,2.3-1.6,4-3.9,4c-2.3,0-4.2-2-4.2-4.3c0-2.4,1.9-4.3,4.3-4.3c1.3,0,2.6,0.6,3.4,1.6
			l-0.7,0.7c-0.6-0.8-1.6-1.4-2.6-1.4c-1.9,0-3.3,1.5-3.3,3.4c0,1.7,1.4,3.4,3.2,3.4c1.3,0,2.7-1.1,2.7-2.5h-2.1v-0.9H275.1z"/>
		<path class="st8" d="M277.7,53.5L277.7,53.5c0.3-0.6,0.8-1,1.4-1c0.3,0,0.6,0.1,0.8,0.3l-0.5,0.9c-0.2-0.2-0.4-0.2-0.6-0.2
			c-1.1,0-1.2,1-1.2,1.8v2.5h-1v-5.1h1V53.5z"/>
		<path class="st8" d="M286.2,55.2c0,1.6-1.2,2.7-2.8,2.7c-1.5,0-2.8-1.2-2.8-2.7s1.2-2.7,2.8-2.7C285,52.5,286.2,53.7,286.2,55.2z
			 M281.7,55.2c0,1,0.8,1.8,1.8,1.8c1,0,1.8-0.8,1.8-1.8c0-1-0.8-1.8-1.8-1.8C282.5,53.4,281.7,54.2,281.7,55.2z"/>
		<path class="st8" d="M288.7,52.6v2.8c0,0.8,0.2,1.6,1.2,1.6s1.2-0.7,1.2-1.6v-2.8h1v3c0,1.4-0.7,2.4-2.2,2.4s-2.2-1-2.2-2.4v-3
			H288.7z"/>
		<path class="st8" d="M295,53.5L295,53.5c0.4-0.6,1-1,1.8-1c1.5,0,2.4,1.3,2.4,2.7c0,1.5-0.9,2.8-2.5,2.8c-0.7,0-1.4-0.4-1.7-1h0
			v3.8h-1v-8.1h1V53.5z M298.2,55.2c0-1-0.6-1.8-1.7-1.8c-1,0-1.6,0.9-1.6,1.8c0,1,0.6,1.9,1.6,1.9
			C297.6,57.1,298.2,56.2,298.2,55.2z"/>
		<path class="st8" d="M309.5,57.8h-1V57h0c-0.4,0.6-1,1-1.7,1c-1.6,0-2.5-1.3-2.5-2.8c0-1.4,0.9-2.7,2.4-2.7c0.8,0,1.4,0.4,1.8,1h0
			v-0.9h1V57.8z M308.6,55.2c0-1-0.6-1.8-1.7-1.8c-1,0-1.6,0.9-1.6,1.8c0,1,0.6,1.9,1.6,1.9C308,57.1,308.6,56.2,308.6,55.2z"/>
		<path class="st8" d="M312.4,53.3L312.4,53.3c0.3-0.6,0.9-0.8,1.6-0.8c1.5,0,1.8,1,1.8,2.2v3.1h-1v-2.9c0-0.9-0.1-1.5-1.1-1.5
			c-1.3,0-1.3,1.1-1.3,2.1v2.4h-1v-5.1h1V53.3z"/>
		<path class="st8" d="M321.7,57L321.7,57c-0.4,0.6-1,1-1.8,1c-1.6,0-2.5-1.3-2.5-2.8c0-1.4,0.9-2.7,2.4-2.7c0.8,0,1.4,0.4,1.8,1h0
			v-5.3h1v9.5h-1V57z M321.7,55.2c0-1-0.6-1.8-1.7-1.8c-1,0-1.6,0.9-1.6,1.8c0,1,0.6,1.9,1.6,1.9C321.1,57.1,321.7,56.2,321.7,55.2z
			"/>
		<path class="st8" d="M329.9,50.3c0,0.4-0.3,0.7-0.7,0.7c-0.4,0-0.7-0.3-0.7-0.7c0-0.4,0.3-0.7,0.7-0.7
			C329.6,49.6,329.9,49.9,329.9,50.3z M329.7,57.8h-1v-5.1h1V57.8z"/>
		<path class="st8" d="M332.9,53.3L332.9,53.3c0.3-0.6,0.9-0.8,1.6-0.8c1.5,0,1.8,1,1.8,2.2v3.1h-1v-2.9c0-0.9-0.1-1.5-1.1-1.5
			c-1.3,0-1.3,1.1-1.3,2.1v2.4h-1v-5.1h1V53.3z"/>
		<path class="st8" d="M339.5,57.8h-1v-4.2h-0.5v-0.9h0.5v-2h1v2h1v0.9h-1V57.8z"/>
		<path class="st8" d="M342.2,55.4c0,0.9,0.6,1.7,1.6,1.7c0.8,0,1.2-0.4,1.5-1l0.8,0.5c-0.5,0.9-1.4,1.4-2.4,1.4
			c-1.6,0-2.5-1.2-2.5-2.7c0-1.6,0.8-2.8,2.5-2.8c1.6,0,2.4,1.2,2.4,2.7v0.2H342.2z M345.2,54.6c-0.1-0.8-0.6-1.3-1.4-1.3
			c-0.8,0-1.3,0.6-1.5,1.3H345.2z"/>
		<path class="st8" d="M348.7,53.5L348.7,53.5c0.3-0.6,0.8-1,1.4-1c0.3,0,0.6,0.1,0.8,0.3l-0.5,0.9c-0.2-0.2-0.4-0.2-0.6-0.2
			c-1.1,0-1.2,1-1.2,1.8v2.5h-1v-5.1h1V53.5z"/>
		<path class="st8" d="M353.1,53.5L353.1,53.5c0.4-0.6,1-1,1.8-1c1.5,0,2.4,1.3,2.4,2.7c0,1.5-0.9,2.8-2.5,2.8c-0.7,0-1.4-0.4-1.7-1
			h0v3.8h-1v-8.1h1V53.5z M356.3,55.2c0-1-0.6-1.8-1.7-1.8c-1,0-1.6,0.9-1.6,1.8c0,1,0.6,1.9,1.6,1.9
			C355.7,57.1,356.3,56.2,356.3,55.2z"/>
		<path class="st8" d="M360,53.5L360,53.5c0.3-0.6,0.8-1,1.4-1c0.3,0,0.6,0.1,0.8,0.3l-0.5,0.9c-0.2-0.2-0.4-0.2-0.6-0.2
			c-1.1,0-1.2,1-1.2,1.8v2.5h-1v-5.1h1V53.5z"/>
		<path class="st8" d="M364.1,55.4c0,0.9,0.6,1.7,1.6,1.7c0.8,0,1.2-0.4,1.5-1l0.8,0.5c-0.5,0.9-1.4,1.4-2.4,1.4
			c-1.6,0-2.5-1.2-2.5-2.7c0-1.6,0.8-2.8,2.5-2.8c1.6,0,2.4,1.2,2.4,2.7v0.2H364.1z M367,54.6c-0.1-0.8-0.6-1.3-1.4-1.3
			c-0.8,0-1.3,0.6-1.5,1.3H367z"/>
		<path class="st8" d="M370.6,57.8h-1v-4.2h-0.5v-0.9h0.5v-2h1v2h1v0.9h-1V57.8z"/>
		<path class="st8" d="M281.6,71L281.6,71c-0.4,0.6-1,1-1.8,1c-1.6,0-2.5-1.3-2.5-2.8c0-1.4,0.9-2.7,2.4-2.7c0.8,0,1.4,0.4,1.8,1h0
			v-5.3h1v9.5h-1V71z M281.7,69.2c0-1-0.6-1.8-1.7-1.8c-1,0-1.6,0.9-1.6,1.8c0,1,0.6,1.9,1.6,1.9C281.1,71.1,281.7,70.2,281.7,69.2z
			"/>
		<path class="st8" d="M289.4,71.8h-1V71h0c-0.4,0.6-1,1-1.7,1c-1.6,0-2.5-1.3-2.5-2.8c0-1.4,0.9-2.7,2.4-2.7c0.8,0,1.4,0.4,1.8,1h0
			v-0.9h1V71.8z M288.4,69.2c0-1-0.6-1.8-1.7-1.8c-1,0-1.6,0.9-1.6,1.8c0,1,0.6,1.9,1.6,1.9C287.9,71.1,288.4,70.2,288.4,69.2z"/>
		<path class="st8" d="M292.5,71.8h-1v-4.2h-0.5v-0.9h0.5v-2h1v2h1v0.9h-1V71.8z"/>
		<path class="st8" d="M299.5,71.8h-1V71h0c-0.4,0.6-1,1-1.7,1c-1.6,0-2.5-1.3-2.5-2.8c0-1.4,0.9-2.7,2.4-2.7c0.8,0,1.4,0.4,1.8,1h0
			v-0.9h1V71.8z M298.5,69.2c0-1-0.6-1.8-1.7-1.8c-1,0-1.6,0.9-1.6,1.8c0,1,0.6,1.9,1.6,1.9C297.9,71.1,298.5,70.2,298.5,69.2z"/>
		<path class="st8" d="M305.2,62.2h1v5.3h0c0.4-0.6,1-1,1.8-1c1.5,0,2.4,1.3,2.4,2.7c0,1.5-0.9,2.8-2.5,2.8c-0.7,0-1.4-0.4-1.7-1h0
			v0.8h-1V62.2z M309.4,69.2c0-1-0.6-1.8-1.7-1.8c-1,0-1.6,0.9-1.6,1.8c0,1,0.6,1.9,1.6,1.9C308.8,71.1,309.4,70.2,309.4,69.2z"/>
		<path class="st8" d="M316.8,71.8h-1V71h0c-0.4,0.6-1,1-1.7,1c-1.6,0-2.5-1.3-2.5-2.8c0-1.4,0.9-2.7,2.4-2.7c0.8,0,1.4,0.4,1.8,1h0
			v-0.9h1V71.8z M315.9,69.2c0-1-0.6-1.8-1.7-1.8c-1,0-1.6,0.9-1.6,1.8c0,1,0.6,1.9,1.6,1.9C315.3,71.1,315.9,70.2,315.9,69.2z"/>
		<path class="st8" d="M320.9,67.8c-0.1-0.3-0.4-0.5-0.7-0.5c-0.3,0-0.5,0.2-0.5,0.5c0,0.5,0.6,0.6,1.2,0.9c0.6,0.3,1.2,0.6,1.2,1.5
			c0,1-0.8,1.7-1.8,1.7c-0.7,0-1.5-0.4-1.8-1.2l0.8-0.4c0.2,0.4,0.5,0.7,0.9,0.7c0.4,0,0.8-0.3,0.8-0.7c0-0.3-0.1-0.4-0.4-0.6
			l-1-0.5c-0.6-0.3-1-0.6-1-1.3c0-0.8,0.7-1.5,1.5-1.5c0.6,0,1.1,0.3,1.4,0.9L320.9,67.8z"/>
		<path class="st8" d="M324.3,69.4c0,0.9,0.6,1.7,1.6,1.7c0.8,0,1.2-0.4,1.5-1l0.8,0.5c-0.5,0.9-1.4,1.4-2.4,1.4
			c-1.6,0-2.5-1.2-2.5-2.7c0-1.6,0.8-2.8,2.5-2.8c1.6,0,2.4,1.2,2.4,2.7v0.2H324.3z M327.2,68.6c-0.1-0.8-0.6-1.3-1.4-1.3
			c-0.8,0-1.3,0.6-1.5,1.3H327.2z"/>
		<path class="st8" d="M333.5,71L333.5,71c-0.4,0.6-1,1-1.8,1c-1.6,0-2.5-1.3-2.5-2.8c0-1.4,0.9-2.7,2.4-2.7c0.8,0,1.4,0.4,1.8,1h0
			v-5.3h1v9.5h-1V71z M333.6,69.2c0-1-0.6-1.8-1.7-1.8c-1,0-1.6,0.9-1.6,1.8c0,1,0.6,1.9,1.6,1.9C333,71.1,333.6,70.2,333.6,69.2z"
			/>
		<path class="st8" d="M345.4,69.2c0,1.6-1.2,2.7-2.8,2.7s-2.8-1.2-2.8-2.7s1.2-2.7,2.8-2.7S345.4,67.7,345.4,69.2z M340.8,69.2
			c0,1,0.8,1.8,1.8,1.8s1.8-0.8,1.8-1.8c0-1-0.8-1.8-1.8-1.8S340.8,68.2,340.8,69.2z"/>
		<path class="st8" d="M347.9,67.3L347.9,67.3c0.3-0.6,0.9-0.8,1.6-0.8c1.5,0,1.8,1,1.8,2.2v3.1h-1v-2.9c0-0.9-0.1-1.5-1.1-1.5
			c-1.3,0-1.3,1.1-1.3,2.1v2.4h-1v-5.1h1V67.3z"/>
		<path class="st8" d="M354.4,71.8h-1v-9.5h1V71.8z"/>
		<path class="st8" d="M355.6,66.6h1.2l1.7,3.3l1.6-3.3h1.1l-4.2,8.1h-1.1l2-3.8L355.6,66.6z"/>
		<path class="st8" d="M291.8,83.2c0,1.6-1.2,2.7-2.8,2.7c-1.5,0-2.8-1.2-2.8-2.7s1.2-2.7,2.8-2.7C290.6,80.5,291.8,81.7,291.8,83.2
			z M287.3,83.2c0,1,0.8,1.8,1.8,1.8c1,0,1.8-0.8,1.8-1.8c0-1-0.8-1.8-1.8-1.8C288,81.4,287.3,82.2,287.3,83.2z"/>
		<path class="st8" d="M294.3,81.3L294.3,81.3c0.3-0.6,0.9-0.8,1.6-0.8c1.5,0,1.8,1,1.8,2.2v3.1h-1v-2.9c0-0.9-0.1-1.5-1.1-1.5
			c-1.3,0-1.3,1.1-1.3,2.1v2.4h-1v-5.1h1V81.3z"/>
		<path class="st8" d="M305,78.3c0,0.4-0.3,0.7-0.7,0.7c-0.4,0-0.7-0.3-0.7-0.7c0-0.4,0.3-0.7,0.7-0.7C304.7,77.6,305,77.9,305,78.3
			z M304.8,85.8h-1v-5.1h1V85.8z"/>
		<path class="st8" d="M308,81.3L308,81.3c0.3-0.6,0.9-0.8,1.6-0.8c1.5,0,1.8,1,1.8,2.2v3.1h-1v-2.9c0-0.9-0.1-1.5-1.1-1.5
			c-1.3,0-1.3,1.1-1.3,2.1v2.4h-1v-5.1h1V81.3z"/>
		<path class="st8" d="M314.4,81.5L314.4,81.5c0.4-0.6,1-1,1.8-1c1.5,0,2.4,1.3,2.4,2.7c0,1.5-0.9,2.8-2.5,2.8c-0.7,0-1.4-0.4-1.7-1
			h0v3.8h-1v-8.1h1V81.5z M317.6,83.2c0-1-0.6-1.8-1.7-1.8c-1,0-1.6,0.9-1.6,1.8c0,1,0.6,1.9,1.6,1.9
			C317,85.1,317.6,84.2,317.6,83.2z"/>
		<path class="st8" d="M321.2,80.6v2.8c0,0.8,0.2,1.6,1.2,1.6c1,0,1.2-0.7,1.2-1.6v-2.8h1v3c0,1.4-0.7,2.4-2.2,2.4
			c-1.5,0-2.2-1-2.2-2.4v-3H321.2z"/>
		<path class="st8" d="M327.7,85.8h-1v-4.2h-0.5v-0.9h0.5v-2h1v2h1v0.9h-1V85.8z"/>
		<path class="st8" d="M337.5,85L337.5,85c-0.4,0.6-1,1-1.8,1c-1.6,0-2.5-1.3-2.5-2.8c0-1.4,0.9-2.7,2.4-2.7c0.8,0,1.4,0.4,1.8,1h0
			v-5.3h1v9.5h-1V85z M337.6,83.2c0-1-0.6-1.8-1.7-1.8c-1,0-1.6,0.9-1.6,1.8c0,1,0.6,1.9,1.6,1.9C337,85.1,337.6,84.2,337.6,83.2z"
			/>
		<path class="st8" d="M345.3,85.8h-1V85h0c-0.4,0.6-1,1-1.7,1c-1.6,0-2.5-1.3-2.5-2.8c0-1.4,0.9-2.7,2.4-2.7c0.8,0,1.4,0.4,1.8,1h0
			v-0.9h1V85.8z M344.3,83.2c0-1-0.6-1.8-1.7-1.8c-1,0-1.6,0.9-1.6,1.8c0,1,0.6,1.9,1.6,1.9C343.7,85.1,344.3,84.2,344.3,83.2z"/>
		<path class="st8" d="M348.4,85.8h-1v-4.2h-0.5v-0.9h0.5v-2h1v2h1v0.9h-1V85.8z"/>
		<path class="st8" d="M355.3,85.8h-1V85h0c-0.4,0.6-1,1-1.7,1c-1.6,0-2.5-1.3-2.5-2.8c0-1.4,0.9-2.7,2.4-2.7c0.8,0,1.4,0.4,1.8,1h0
			v-0.9h1V85.8z M354.4,83.2c0-1-0.6-1.8-1.7-1.8c-1,0-1.6,0.9-1.6,1.8c0,1,0.6,1.9,1.6,1.9C353.8,85.1,354.4,84.2,354.4,83.2z"/>
	</g>
</g>
<path class="st3" d="M384.7,226.7h-127c-4.4,0-8-3.6-8-8v-82c0-4.4,3.6-8,8-8h127c4.4,0,8,3.6,8,8v82
	C392.7,223.1,389.1,226.7,384.7,226.7z"/>
<path class="st4" d="M378.5,218.8H264.3c-3.1,0-5.7-2.5-5.7-5.7v-33.4c0-3.1,2.5-5.7,5.7-5.7h114.2c3.1,0,5.7,2.5,5.7,5.7v33.4
	C384.2,216.2,381.6,218.8,378.5,218.8z"/>
<g>
	<g>
		<path class="st8" d="M271.6,177.5h1.7c2.5,0,4.7,1.3,4.7,4.1c0,2.8-2.1,4.2-4.7,4.2h-1.7V177.5z M272.6,184.8h0.4
			c2.1,0,3.9-0.8,3.9-3.2c0-2.4-1.8-3.2-3.9-3.2h-0.4V184.8z"/>
		<path class="st8" d="M280.1,183.3c0,0.9,0.6,1.7,1.6,1.7c0.8,0,1.2-0.4,1.5-1l0.8,0.5c-0.5,0.9-1.4,1.4-2.4,1.4
			c-1.6,0-2.5-1.2-2.5-2.7c0-1.6,0.8-2.8,2.5-2.8c1.6,0,2.4,1.2,2.4,2.7v0.2H280.1z M283,182.6c-0.1-0.8-0.6-1.3-1.4-1.3
			c-0.8,0-1.3,0.6-1.5,1.3H283z"/>
		<path class="st8" d="M287.3,183.8l1.5-3.2h1.1l-2.6,5.3l-2.6-5.3h1.1L287.3,183.8z"/>
		<path class="st8" d="M291.7,183.3c0,0.9,0.6,1.7,1.6,1.7c0.8,0,1.2-0.4,1.5-1l0.8,0.5c-0.5,0.9-1.4,1.4-2.4,1.4
			c-1.6,0-2.5-1.2-2.5-2.7c0-1.6,0.8-2.8,2.5-2.8c1.6,0,2.4,1.2,2.4,2.7v0.2H291.7z M294.6,182.6c-0.1-0.8-0.6-1.3-1.4-1.3
			c-0.8,0-1.3,0.6-1.5,1.3H294.6z"/>
		<path class="st8" d="M298.2,185.7h-1v-9.5h1V185.7z"/>
		<path class="st8" d="M305.3,183.2c0,1.6-1.2,2.7-2.8,2.7c-1.5,0-2.8-1.2-2.8-2.7c0-1.6,1.2-2.7,2.8-2.7
			C304.1,180.4,305.3,181.6,305.3,183.2z M300.8,183.2c0,1,0.8,1.8,1.8,1.8c1,0,1.8-0.8,1.8-1.8c0-1-0.8-1.8-1.8-1.8
			C301.5,181.4,300.8,182.2,300.8,183.2z"/>
		<path class="st8" d="M307.7,181.5L307.7,181.5c0.4-0.6,1-1,1.8-1c1.5,0,2.4,1.3,2.4,2.7c0,1.5-0.9,2.8-2.5,2.8
			c-0.7,0-1.4-0.4-1.8-1h0v3.8h-1v-8.1h1V181.5z M311,183.2c0-1-0.6-1.8-1.7-1.8c-1,0-1.6,0.9-1.6,1.8c0,1,0.6,1.9,1.6,1.9
			C310.4,185,311,184.2,311,183.2z"/>
		<path class="st8" d="M318.4,181.5L318.4,181.5c0.4-0.6,1-1,1.8-1c1.5,0,2.4,1.3,2.4,2.7c0,1.5-0.9,2.8-2.5,2.8
			c-0.7,0-1.4-0.4-1.7-1h0v3.8h-1v-8.1h1V181.5z M321.6,183.2c0-1-0.6-1.8-1.7-1.8c-1,0-1.6,0.9-1.6,1.8c0,1,0.6,1.9,1.6,1.9
			C321,185,321.6,184.2,321.6,183.2z"/>
		<path class="st8" d="M325.3,181.4L325.3,181.4c0.3-0.6,0.8-1,1.4-1c0.3,0,0.6,0.1,0.8,0.3l-0.5,0.9c-0.2-0.2-0.4-0.2-0.6-0.2
			c-1.1,0-1.2,1-1.2,1.8v2.5h-1v-5.1h1V181.4z"/>
		<path class="st8" d="M329.3,183.3c0,0.9,0.6,1.7,1.6,1.7c0.8,0,1.2-0.4,1.5-1l0.8,0.5c-0.5,0.9-1.4,1.4-2.4,1.4
			c-1.6,0-2.5-1.2-2.5-2.7c0-1.6,0.8-2.8,2.5-2.8c1.6,0,2.4,1.2,2.4,2.7v0.2H329.3z M332.3,182.6c-0.1-0.8-0.6-1.3-1.4-1.3
			c-0.8,0-1.3,0.6-1.5,1.3H332.3z"/>
		<path class="st8" d="M338.6,184.9L338.6,184.9c-0.4,0.6-1,1-1.8,1c-1.6,0-2.5-1.3-2.5-2.8c0-1.4,0.9-2.7,2.4-2.7
			c0.8,0,1.4,0.4,1.8,1h0v-5.3h1v9.5h-1V184.9z M338.7,183.2c0-1-0.6-1.8-1.7-1.8c-1,0-1.6,0.9-1.6,1.8c0,1,0.6,1.9,1.6,1.9
			C338.1,185,338.7,184.2,338.7,183.2z"/>
		<path class="st8" d="M342.9,178.2c0,0.4-0.3,0.7-0.7,0.7c-0.4,0-0.7-0.3-0.7-0.7c0-0.4,0.3-0.7,0.7-0.7
			C342.6,177.6,342.9,177.9,342.9,178.2z M342.7,185.7h-1v-5.1h1V185.7z"/>
		<path class="st8" d="M348.8,182.1c-0.4-0.5-0.9-0.7-1.5-0.7c-1,0-1.7,0.9-1.7,1.8c0,1.1,0.7,1.8,1.8,1.8c0.6,0,1-0.3,1.4-0.7v1.3
			c-0.5,0.2-0.9,0.3-1.4,0.3c-1.5,0-2.8-1.2-2.8-2.7c0-1.6,1.2-2.8,2.8-2.8c0.5,0,1,0.1,1.4,0.3V182.1z"/>
		<path class="st8" d="M351.6,185.7h-1v-4.2h-0.5v-0.9h0.5v-2h1v2h1v0.9h-1V185.7z"/>
		<path class="st8" d="M355.2,178.2c0,0.4-0.3,0.7-0.7,0.7s-0.7-0.3-0.7-0.7c0-0.4,0.3-0.7,0.7-0.7S355.2,177.9,355.2,178.2z
			 M355,185.7h-1v-5.1h1V185.7z"/>
		<path class="st8" d="M359,183.8l1.5-3.2h1.1l-2.6,5.3l-2.6-5.3h1.1L359,183.8z"/>
		<path class="st8" d="M363.4,183.3c0,0.9,0.6,1.7,1.6,1.7c0.8,0,1.2-0.4,1.5-1l0.8,0.5c-0.5,0.9-1.4,1.4-2.4,1.4
			c-1.6,0-2.5-1.2-2.5-2.7c0-1.6,0.8-2.8,2.5-2.8c1.6,0,2.4,1.2,2.4,2.7v0.2H363.4z M366.3,182.6c-0.1-0.8-0.6-1.3-1.4-1.3
			c-0.8,0-1.3,0.6-1.5,1.3H366.3z"/>
		<path class="st8" d="M265.9,195.2L265.9,195.2c0.3-0.5,0.8-0.8,1.4-0.8c0.7,0,1.2,0.3,1.5,0.9c0.3-0.6,0.9-0.9,1.6-0.9
			c1.4,0,1.7,1.1,1.7,2.2v3.1h-1v-2.9c0-0.7-0.1-1.5-1-1.5c-1.1,0-1.1,1.1-1.1,1.9v2.5h-1V197c0-0.7,0-1.7-0.9-1.7
			c-1.1,0-1.1,1.1-1.1,1.9v2.5h-1v-5.1h1V195.2z"/>
		<path class="st8" d="M279.1,197.2c0,1.6-1.2,2.7-2.8,2.7s-2.8-1.2-2.8-2.7c0-1.6,1.2-2.7,2.8-2.7S279.1,195.6,279.1,197.2z
			 M274.6,197.2c0,1,0.8,1.8,1.8,1.8s1.8-0.8,1.8-1.8c0-1-0.8-1.8-1.8-1.8S274.6,196.2,274.6,197.2z"/>
		<path class="st8" d="M284.5,198.9L284.5,198.9c-0.4,0.6-1,1-1.8,1c-1.6,0-2.5-1.3-2.5-2.8c0-1.4,0.9-2.7,2.4-2.7
			c0.8,0,1.4,0.4,1.8,1h0v-5.3h1v9.5h-1V198.9z M284.5,197.2c0-1-0.6-1.8-1.7-1.8c-1,0-1.6,0.9-1.6,1.8c0,1,0.6,1.9,1.6,1.9
			C284,199,284.5,198.2,284.5,197.2z"/>
		<path class="st8" d="M288,197.3c0,0.9,0.6,1.7,1.6,1.7c0.8,0,1.2-0.4,1.5-1l0.8,0.5c-0.5,0.9-1.4,1.4-2.4,1.4
			c-1.6,0-2.5-1.2-2.5-2.7c0-1.6,0.8-2.8,2.5-2.8c1.6,0,2.4,1.2,2.4,2.7v0.2H288z M291,196.6c-0.1-0.8-0.6-1.3-1.4-1.3
			c-0.8,0-1.3,0.6-1.5,1.3H291z"/>
		<path class="st8" d="M294.5,199.7h-1v-9.5h1V199.7z"/>
		<path class="st8" d="M300.3,190.2h1v5.3h0c0.4-0.6,1-1,1.8-1c1.5,0,2.4,1.3,2.4,2.7c0,1.5-0.9,2.8-2.5,2.8c-0.7,0-1.4-0.4-1.7-1h0
			v0.8h-1V190.2z M304.6,197.2c0-1-0.6-1.8-1.7-1.8c-1,0-1.6,0.9-1.6,1.8c0,1,0.6,1.9,1.6,1.9C304,199,304.6,198.2,304.6,197.2z"/>
		<path class="st8" d="M312,199.7h-1v-0.8h0c-0.4,0.6-1,1-1.7,1c-1.6,0-2.5-1.3-2.5-2.8c0-1.4,0.9-2.7,2.4-2.7c0.8,0,1.4,0.4,1.8,1
			h0v-0.9h1V199.7z M311.1,197.2c0-1-0.6-1.8-1.7-1.8c-1,0-1.6,0.9-1.6,1.8c0,1,0.6,1.9,1.6,1.9C310.5,199,311.1,198.2,311.1,197.2z
			"/>
		<path class="st8" d="M316,195.8c-0.1-0.3-0.4-0.5-0.7-0.5c-0.3,0-0.5,0.2-0.5,0.5c0,0.5,0.6,0.6,1.2,0.9c0.6,0.3,1.2,0.6,1.2,1.5
			c0,1-0.8,1.7-1.8,1.7c-0.7,0-1.5-0.4-1.8-1.2l0.8-0.4c0.2,0.4,0.5,0.7,0.9,0.7c0.4,0,0.8-0.3,0.8-0.7c0-0.3-0.1-0.4-0.4-0.6
			l-1-0.5c-0.6-0.3-1-0.6-1-1.3c0-0.8,0.7-1.5,1.5-1.5c0.6,0,1.1,0.3,1.4,0.9L316,195.8z"/>
		<path class="st8" d="M319.4,197.3c0,0.9,0.6,1.7,1.6,1.7c0.8,0,1.2-0.4,1.5-1l0.8,0.5c-0.5,0.9-1.4,1.4-2.4,1.4
			c-1.6,0-2.5-1.2-2.5-2.7c0-1.6,0.8-2.8,2.5-2.8c1.6,0,2.4,1.2,2.4,2.7v0.2H319.4z M322.4,196.6c-0.1-0.8-0.6-1.3-1.4-1.3
			c-0.8,0-1.3,0.6-1.5,1.3H322.4z"/>
		<path class="st8" d="M328.7,198.9L328.7,198.9c-0.4,0.6-1,1-1.8,1c-1.6,0-2.5-1.3-2.5-2.8c0-1.4,0.9-2.7,2.4-2.7
			c0.8,0,1.4,0.4,1.8,1h0v-5.3h1v9.5h-1V198.9z M328.8,197.2c0-1-0.6-1.8-1.7-1.8c-1,0-1.6,0.9-1.6,1.8c0,1,0.6,1.9,1.6,1.9
			C328.2,199,328.8,198.2,328.8,197.2z"/>
		<path class="st8" d="M340.5,197.2c0,1.6-1.2,2.7-2.8,2.7s-2.8-1.2-2.8-2.7c0-1.6,1.2-2.7,2.8-2.7S340.5,195.6,340.5,197.2z
			 M336,197.2c0,1,0.8,1.8,1.8,1.8s1.8-0.8,1.8-1.8c0-1-0.8-1.8-1.8-1.8S336,196.2,336,197.2z"/>
		<path class="st8" d="M343.1,195.3L343.1,195.3c0.3-0.5,0.9-0.8,1.6-0.8c1.5,0,1.8,1,1.8,2.2v3.1h-1v-2.9c0-0.9-0.1-1.5-1.1-1.5
			c-1.3,0-1.3,1.1-1.3,2.1v2.4h-1v-5.1h1V195.3z"/>
		<path class="st8" d="M352.3,190.2h1v5.3h0c0.4-0.6,1-1,1.8-1c1.5,0,2.4,1.3,2.4,2.7c0,1.5-0.9,2.8-2.5,2.8c-0.7,0-1.4-0.4-1.8-1h0
			v0.8h-1V190.2z M356.5,197.2c0-1-0.6-1.8-1.7-1.8c-1,0-1.6,0.9-1.6,1.8c0,1,0.6,1.9,1.6,1.9C355.9,199,356.5,198.2,356.5,197.2z"
			/>
		<path class="st8" d="M364.1,197.2c0,1.6-1.2,2.7-2.8,2.7s-2.8-1.2-2.8-2.7c0-1.6,1.2-2.7,2.8-2.7S364.1,195.6,364.1,197.2z
			 M359.6,197.2c0,1,0.8,1.8,1.8,1.8s1.8-0.8,1.8-1.8c0-1-0.8-1.8-1.8-1.8S359.6,196.2,359.6,197.2z"/>
		<path class="st8" d="M366.8,199.7h-1v-4.2h-0.5v-0.9h0.5v-2h1v2h1v0.9h-1V199.7z"/>
		<path class="st8" d="M370,190.2v5.1h0c0.3-0.5,0.9-0.8,1.6-0.8c1.5,0,1.8,1,1.8,2.2v3.1h-1v-2.9c0-0.9-0.1-1.5-1.1-1.5
			c-1.3,0-1.3,1.1-1.3,2.1v2.4h-1v-9.5H370z"/>
		<path class="st8" d="M266.6,206.2c0,0.4-0.3,0.7-0.7,0.7s-0.7-0.3-0.7-0.7c0-0.4,0.3-0.7,0.7-0.7S266.6,205.9,266.6,206.2z
			 M266.4,213.7h-1v-5.1h1V213.7z"/>
		<path class="st8" d="M269.6,209.3L269.6,209.3c0.3-0.5,0.9-0.8,1.6-0.8c1.5,0,1.8,1,1.8,2.2v3.1h-1v-2.9c0-0.9-0.1-1.5-1.1-1.5
			c-1.3,0-1.3,1.1-1.3,2.1v2.4h-1v-5.1h1V209.3z"/>
		<path class="st8" d="M275.9,209.5L275.9,209.5c0.4-0.6,1-1,1.8-1c1.5,0,2.4,1.3,2.4,2.7c0,1.5-0.9,2.8-2.5,2.8
			c-0.7,0-1.4-0.4-1.7-1h0v3.8h-1v-8.1h1V209.5z M279.2,211.2c0-1-0.6-1.8-1.7-1.8c-1,0-1.6,0.9-1.6,1.8c0,1,0.6,1.9,1.6,1.9
			C278.6,213,279.2,212.2,279.2,211.2z"/>
		<path class="st8" d="M282.7,208.6v2.8c0,0.8,0.2,1.6,1.2,1.6c1,0,1.2-0.7,1.2-1.6v-2.8h1v3c0,1.4-0.7,2.4-2.2,2.4
			c-1.5,0-2.2-1-2.2-2.4v-3H282.7z"/>
		<path class="st8" d="M289.2,213.7h-1v-4.2h-0.5v-0.9h0.5v-2h1v2h1v0.9h-1V213.7z"/>
		<path class="st8" d="M300.1,213.7h-1v-0.8h0c-0.4,0.6-1,1-1.7,1c-1.6,0-2.5-1.3-2.5-2.8c0-1.4,0.9-2.7,2.4-2.7
			c0.8,0,1.4,0.4,1.8,1h0v-0.9h1V213.7z M299.1,211.2c0-1-0.6-1.8-1.7-1.8c-1,0-1.6,0.9-1.6,1.8c0,1,0.6,1.9,1.6,1.9
			C298.5,213,299.1,212.2,299.1,211.2z"/>
		<path class="st8" d="M303,209.3L303,209.3c0.3-0.5,0.9-0.8,1.6-0.8c1.5,0,1.8,1,1.8,2.2v3.1h-1v-2.9c0-0.9-0.1-1.5-1.1-1.5
			c-1.3,0-1.3,1.1-1.3,2.1v2.4h-1v-5.1h1V209.3z"/>
		<path class="st8" d="M312.3,212.9L312.3,212.9c-0.4,0.6-1,1-1.8,1c-1.6,0-2.5-1.3-2.5-2.8c0-1.4,0.9-2.7,2.4-2.7
			c0.8,0,1.4,0.4,1.8,1h0v-5.3h1v9.5h-1V212.9z M312.3,211.2c0-1-0.6-1.8-1.7-1.8c-1,0-1.6,0.9-1.6,1.8c0,1,0.6,1.9,1.6,1.9
			C311.7,213,312.3,212.2,312.3,211.2z"/>
		<path class="st8" d="M324.1,211.2c0,1.6-1.2,2.7-2.8,2.7c-1.5,0-2.8-1.2-2.8-2.7c0-1.6,1.2-2.7,2.8-2.7
			C322.9,208.4,324.1,209.6,324.1,211.2z M319.6,211.2c0,1,0.8,1.8,1.8,1.8c1,0,1.8-0.8,1.8-1.8c0-1-0.8-1.8-1.8-1.8
			C320.3,209.4,319.6,210.2,319.6,211.2z"/>
		<path class="st8" d="M326.6,208.6v2.8c0,0.8,0.2,1.6,1.2,1.6c1,0,1.2-0.7,1.2-1.6v-2.8h1v3c0,1.4-0.7,2.4-2.2,2.4
			c-1.5,0-2.2-1-2.2-2.4v-3H326.6z"/>
		<path class="st8" d="M333.1,213.7h-1v-4.2h-0.5v-0.9h0.5v-2h1v2h1v0.9h-1V213.7z"/>
		<path class="st8" d="M336.1,209.5L336.1,209.5c0.4-0.6,1-1,1.8-1c1.5,0,2.4,1.3,2.4,2.7c0,1.5-0.9,2.8-2.5,2.8
			c-0.7,0-1.4-0.4-1.8-1h0v3.8h-1v-8.1h1V209.5z M339.4,211.2c0-1-0.6-1.8-1.7-1.8c-1,0-1.6,0.9-1.6,1.8c0,1,0.6,1.9,1.6,1.9
			C338.8,213,339.4,212.2,339.4,211.2z"/>
		<path class="st8" d="M342.9,208.6v2.8c0,0.8,0.2,1.6,1.2,1.6c1,0,1.2-0.7,1.2-1.6v-2.8h1v3c0,1.4-0.7,2.4-2.2,2.4
			c-1.5,0-2.2-1-2.2-2.4v-3H342.9z"/>
		<path class="st8" d="M349.4,213.7h-1v-4.2h-0.5v-0.9h0.5v-2h1v2h1v0.9h-1V213.7z"/>
		<path class="st8" d="M359.3,212.9L359.3,212.9c-0.4,0.6-1,1-1.8,1c-1.6,0-2.5-1.3-2.5-2.8c0-1.4,0.9-2.7,2.4-2.7
			c0.8,0,1.4,0.4,1.8,1h0v-5.3h1v9.5h-1V212.9z M359.3,211.2c0-1-0.6-1.8-1.7-1.8c-1,0-1.6,0.9-1.6,1.8c0,1,0.6,1.9,1.6,1.9
			C358.7,213,359.3,212.2,359.3,211.2z"/>
		<path class="st8" d="M367,213.7h-1v-0.8h0c-0.4,0.6-1,1-1.7,1c-1.6,0-2.5-1.3-2.5-2.8c0-1.4,0.9-2.7,2.4-2.7c0.8,0,1.4,0.4,1.8,1
			h0v-0.9h1V213.7z M366.1,211.2c0-1-0.6-1.8-1.7-1.8c-1,0-1.6,0.9-1.6,1.8c0,1,0.6,1.9,1.6,1.9C365.5,213,366.1,212.2,366.1,211.2z
			"/>
		<path class="st8" d="M370.1,213.7h-1v-4.2h-0.5v-0.9h0.5v-2h1v2h1v0.9h-1V213.7z"/>
		<path class="st8" d="M377.1,213.7h-1v-0.8h0c-0.4,0.6-1,1-1.7,1c-1.6,0-2.5-1.3-2.5-2.8c0-1.4,0.9-2.7,2.4-2.7
			c0.8,0,1.4,0.4,1.8,1h0v-0.9h1V213.7z M376.2,211.2c0-1-0.6-1.8-1.7-1.8c-1,0-1.6,0.9-1.6,1.8c0,1,0.6,1.9,1.6,1.9
			C375.6,213,376.2,212.2,376.2,211.2z"/>
	</g>
</g>
<g>
	<g>
		<path class="st8" d="M21.7,112.6L21.7,112.6l-2.6,7.2h-0.8l-2.5-7.2h0l-1,7h-2.2l1.9-11.6h1.6l2.8,7.5l2.7-7.5h1.6l1.7,11.6h-2.2
			L21.7,112.6z"/>
		<path class="st8" d="M29,117.2l-0.9,2.4h-2.3l4.4-11.6h1.7l4.3,11.6h-2.4l-0.9-2.4H29z M30.9,111.3L30.9,111.3l-1.3,4.1h2.7
			L30.9,111.3z"/>
		<path class="st8" d="M45.3,111.3c-0.6-0.8-1.5-1.2-2.5-1.2c-2.1,0-3.3,2-3.3,3.9c0,1.9,1.3,3.8,3.3,3.8c0.9,0,1.9-0.5,2.5-1.2v2.6
			c-0.8,0.4-1.6,0.7-2.6,0.7c-3.2,0-5.5-2.7-5.5-5.9c0-3.2,2.3-6,5.6-6c0.9,0,1.8,0.2,2.5,0.7V111.3z"/>
		<path class="st8" d="M54,112.8v-4.5h2.2v11.3H54v-5.1h-4.1v5.1h-2.2v-11.3h2.2v4.5H54z"/>
		<path class="st8" d="M60.9,119.6h-2.2v-11.3h2.2V119.6z"/>
		<path class="st8" d="M63.4,108H65l6,7.9h0v-7.6h2.2v11.5h-1.6l-6-7.9h0v7.7h-2.2V108z"/>
		<path class="st8" d="M77.9,110.2v2.5h3.5v1.9h-3.5v3.1h3.6v1.9h-5.8v-11.3h5.8v1.9H77.9z"/>
		<path class="st8" d="M91.3,117.7h3.1v1.9h-5.3v-11.3h2.2V117.7z"/>
		<path class="st8" d="M98.3,110.2v2.5h3.5v1.9h-3.5v3.1h3.6v1.9h-5.8v-11.3h5.8v1.9H98.3z"/>
		<path class="st8" d="M106.6,117.2l-0.9,2.4h-2.3l4.4-11.6h1.7l4.3,11.6h-2.4l-0.9-2.4H106.6z M108.5,111.3L108.5,111.3l-1.3,4.1
			h2.7L108.5,111.3z"/>
		<path class="st8" d="M123,119.6h-2.7l-2.7-4.6h0v4.6h-2.2v-11.3h3c2.2,0,3.8,1,3.8,3.4c0,1.4-0.8,2.9-2.3,3.1L123,119.6z
			 M117.5,113.5h0.3c1.2,0,2.1-0.4,2.1-1.7c0-1.4-0.9-1.7-2.1-1.7h-0.3V113.5z"/>
		<path class="st8" d="M124.6,108h1.6l6,7.9h0v-7.6h2.2v11.5h-1.6l-6-7.9h0v7.7h-2.2V108z"/>
		<path class="st8" d="M139.1,119.6h-2.2v-11.3h2.2V119.6z"/>
		<path class="st8" d="M141.6,108h1.6l6,7.9h0v-7.6h2.2v11.5h-1.6l-6-7.9h0v7.7h-2.2V108z"/>
		<path class="st8" d="M163.9,113.6v0.3c0,3.2-1.6,6-5.1,6c-3.3,0-5.4-2.8-5.4-5.9c0-3.2,2.1-6,5.5-6c1.9,0,3.6,1,4.5,2.7l-2,1
			c-0.4-1-1.4-1.8-2.6-1.8c-2.1,0-3.2,2.2-3.2,4s1.1,4,3.2,4c1.4,0,2.5-1.2,2.6-2.6H159v-1.8H163.9z"/>
	</g>
</g>
<g>
	<g>
		<path class="st8" d="M266.3,11.3h2.2v6.3c0,1.4,0.1,3.4,2,3.4s2-2,2-3.4v-6.3h2.2v6.8c0,2.8-1.2,4.8-4.2,4.8s-4.2-2.1-4.2-4.8
			V11.3z"/>
		<path class="st8" d="M277.2,11h1.6l6,7.9h0v-7.6h2.2v11.5h-1.6l-6-7.9h0v7.7h-2.2V11z"/>
		<path class="st8" d="M294.8,13.8c-0.4-0.6-1-0.9-1.7-0.9c-0.7,0-1.4,0.5-1.4,1.3c0,1.9,4.5,1.1,4.5,4.9c0,2.3-1.4,3.9-3.7,3.9
			c-1.6,0-2.7-0.9-3.5-2.2l1.4-1.4c0.3,0.9,1.1,1.6,2,1.6c0.9,0,1.5-0.8,1.5-1.6c0-1.2-1.1-1.5-2-1.8c-1.5-0.6-2.5-1.3-2.5-3.1
			c0-1.9,1.4-3.4,3.3-3.4c1,0,2.4,0.5,3.1,1.3L294.8,13.8z"/>
		<path class="st8" d="M298.2,11.3h2.2v6.3c0,1.4,0.1,3.4,2,3.4s2-2,2-3.4v-6.3h2.2v6.8c0,2.8-1.2,4.8-4.2,4.8c-3,0-4.2-2.1-4.2-4.8
			V11.3z"/>
		<path class="st8" d="M311.3,22.6h-2.2V11.3h3c2.4,0,3.9,0.9,3.9,3.5c0,2.4-1.3,3.6-3.6,3.6h-1.1V22.6z M311.3,16.6h0.5
			c1.3,0,2-0.3,2-1.8c0-1.5-0.8-1.7-2.1-1.7h-0.4V16.6z"/>
		<path class="st8" d="M320.1,13.3v2.5h3.5v1.9h-3.5v3.1h3.6v1.9h-5.8V11.3h5.8v1.9H320.1z"/>
		<path class="st8" d="M333.8,22.6h-2.7l-2.7-4.6h0v4.6h-2.2V11.3h3c2.2,0,3.8,1,3.8,3.4c0,1.4-0.8,2.9-2.3,3.1L333.8,22.6z
			 M328.3,16.5h0.3c1.2,0,2.1-0.4,2.1-1.7c0-1.4-0.9-1.7-2.1-1.7h-0.3V16.5z"/>
		<path class="st8" d="M339.4,19L339.4,19l2.5-7.6h2.4L340,22.9h-1.3l-4.3-11.6h2.4L339.4,19z"/>
		<path class="st8" d="M348.1,22.6h-2.2V11.3h2.2V22.6z"/>
		<path class="st8" d="M355.9,13.8c-0.4-0.6-1-0.9-1.7-0.9c-0.7,0-1.4,0.5-1.4,1.3c0,1.9,4.5,1.1,4.5,4.9c0,2.3-1.4,3.9-3.7,3.9
			c-1.6,0-2.7-0.9-3.5-2.2l1.4-1.4c0.3,0.9,1.1,1.6,2,1.6c0.9,0,1.5-0.8,1.5-1.6c0-1.2-1.1-1.5-2-1.8c-1.5-0.6-2.5-1.3-2.5-3.1
			c0-1.9,1.4-3.4,3.3-3.4c1,0,2.4,0.5,3.1,1.3L355.9,13.8z"/>
		<path class="st8" d="M361.6,13.3v2.5h3.5v1.9h-3.5v3.1h3.6v1.9h-5.8V11.3h5.8v1.9H361.6z"/>
		<path class="st8" d="M367.6,11.3h3.2c3.3,0,5.5,2.4,5.5,5.7c0,3.2-2.2,5.6-5.5,5.6h-3.1V11.3z M369.8,20.7h0.4
			c2.7,0,3.8-1.5,3.8-3.7c0-2.5-1.3-3.7-3.8-3.7h-0.4V20.7z"/>
		<path class="st8" d="M288.7,37.7h3.1v1.9h-5.3V28.3h2.2V37.7z"/>
		<path class="st8" d="M295.7,30.3v2.5h3.5v1.9h-3.5v3.1h3.6v1.9h-5.8V28.3h5.8v1.9H295.7z"/>
		<path class="st8" d="M304,37.3l-0.9,2.4h-2.3l4.4-11.6h1.7l4.3,11.6h-2.4l-0.9-2.4H304z M305.9,31.4L305.9,31.4l-1.3,4.1h2.7
			L305.9,31.4z"/>
		<path class="st8" d="M320.4,39.6h-2.7l-2.7-4.6h0v4.6h-2.2V28.3h3c2.2,0,3.8,1,3.8,3.4c0,1.4-0.8,2.9-2.3,3.1L320.4,39.6z
			 M314.9,33.5h0.3c1.2,0,2.1-0.4,2.1-1.7c0-1.4-0.9-1.7-2.1-1.7h-0.3V33.5z"/>
		<path class="st8" d="M322,28h1.6l6,7.9h0v-7.6h2.2v11.5h-1.6l-6-7.9h0v7.7H322V28z"/>
		<path class="st8" d="M336.5,39.6h-2.2V28.3h2.2V39.6z"/>
		<path class="st8" d="M339,28h1.6l6,7.9h0v-7.6h2.2v11.5h-1.6l-6-7.9h0v7.7H339V28z"/>
		<path class="st8" d="M361.3,33.6v0.3c0,3.2-1.6,6-5.1,6c-3.3,0-5.4-2.8-5.4-5.9c0-3.2,2.1-6,5.5-6c1.9,0,3.6,1,4.5,2.7l-2,1
			c-0.5-1-1.4-1.8-2.6-1.8c-2.1,0-3.2,2.2-3.2,4s1.1,4,3.2,4c1.4,0,2.5-1.2,2.6-2.6h-2.4v-1.8H361.3z"/>
	</g>
</g>
<g>
	<g>
		<path class="st8" d="M281.3,140c-0.4-0.6-1-0.9-1.7-0.9c-0.7,0-1.4,0.5-1.4,1.3c0,1.9,4.5,1.1,4.5,4.9c0,2.3-1.4,3.9-3.7,3.9
			c-1.6,0-2.7-0.9-3.5-2.2l1.4-1.4c0.3,0.9,1.1,1.6,2,1.6c0.9,0,1.5-0.8,1.5-1.6c0-1.2-1.1-1.5-2-1.8c-1.5-0.6-2.5-1.3-2.5-3.1
			c0-1.9,1.4-3.4,3.3-3.4c1,0,2.4,0.5,3.1,1.3L281.3,140z"/>
		<path class="st8" d="M284.7,137.5h2.2v6.3c0,1.4,0.1,3.4,2,3.4s2-2,2-3.4v-6.3h2.2v6.8c0,2.8-1.2,4.8-4.2,4.8s-4.2-2.1-4.2-4.8
			V137.5z"/>
		<path class="st8" d="M297.7,148.9h-2.2v-11.3h3c2.4,0,3.9,0.9,3.9,3.5c0,2.4-1.3,3.6-3.6,3.6h-1.1V148.9z M297.7,142.8h0.5
			c1.3,0,2-0.3,2-1.8c0-1.5-0.8-1.7-2.1-1.7h-0.4V142.8z"/>
		<path class="st8" d="M306.5,139.5v2.5h3.5v1.9h-3.5v3.1h3.6v1.9h-5.8v-11.3h5.8v1.9H306.5z"/>
		<path class="st8" d="M320.2,148.9h-2.7l-2.7-4.6h0v4.6h-2.2v-11.3h3c2.2,0,3.8,1,3.8,3.4c0,1.4-0.8,2.9-2.3,3.1L320.2,148.9z
			 M314.8,142.7h0.3c1.2,0,2.1-0.4,2.1-1.7c0-1.4-0.9-1.7-2.1-1.7h-0.3V142.7z"/>
		<path class="st8" d="M325.9,145.2L325.9,145.2l2.5-7.6h2.4l-4.4,11.6h-1.3l-4.3-11.6h2.4L325.9,145.2z"/>
		<path class="st8" d="M334.5,148.9h-2.2v-11.3h2.2V148.9z"/>
		<path class="st8" d="M342.3,140c-0.4-0.6-1-0.9-1.7-0.9c-0.7,0-1.4,0.5-1.4,1.3c0,1.9,4.5,1.1,4.5,4.9c0,2.3-1.4,3.9-3.7,3.9
			c-1.6,0-2.7-0.9-3.5-2.2l1.4-1.4c0.3,0.9,1.1,1.6,2,1.6c0.9,0,1.5-0.8,1.5-1.6c0-1.2-1.1-1.5-2-1.8c-1.5-0.6-2.5-1.3-2.5-3.1
			c0-1.9,1.4-3.4,3.3-3.4c1,0,2.4,0.5,3.1,1.3L342.3,140z"/>
		<path class="st8" d="M348,139.5v2.5h3.5v1.9H348v3.1h3.6v1.9h-5.8v-11.3h5.8v1.9H348z"/>
		<path class="st8" d="M354,137.5h3.1c3.3,0,5.5,2.4,5.5,5.7c0,3.2-2.3,5.6-5.5,5.6H354V137.5z M356.2,146.9h0.4
			c2.7,0,3.8-1.5,3.8-3.7c0-2.5-1.3-3.7-3.8-3.7h-0.4V146.9z"/>
		<path class="st8" d="M286.7,163.9h3.1v1.9h-5.3v-11.3h2.2V163.9z"/>
		<path class="st8" d="M293.7,156.5v2.5h3.5v1.9h-3.5v3.1h3.6v1.9h-5.8v-11.3h5.8v1.9H293.7z"/>
		<path class="st8" d="M302,163.5l-0.9,2.4h-2.3l4.4-11.6h1.7l4.3,11.6h-2.4l-0.9-2.4H302z M303.9,157.6L303.9,157.6l-1.3,4.1h2.7
			L303.9,157.6z"/>
		<path class="st8" d="M318.4,165.9h-2.7l-2.7-4.6h0v4.6h-2.2v-11.3h3c2.2,0,3.8,1,3.8,3.4c0,1.4-0.8,2.9-2.3,3.1L318.4,165.9z
			 M312.9,159.7h0.3c1.2,0,2.1-0.4,2.1-1.7c0-1.4-0.9-1.7-2.1-1.7h-0.3V159.7z"/>
		<path class="st8" d="M320,154.2h1.6l6,7.9h0v-7.6h2.2v11.5h-1.6l-6-7.9h0v7.7H320V154.2z"/>
		<path class="st8" d="M334.5,165.9h-2.2v-11.3h2.2V165.9z"/>
		<path class="st8" d="M337,154.2h1.6l6,7.9h0v-7.6h2.2v11.5h-1.6l-6-7.9h0v7.7H337V154.2z"/>
		<path class="st8" d="M359.3,159.8v0.3c0,3.2-1.6,6-5.1,6c-3.3,0-5.4-2.8-5.4-5.9c0-3.2,2.1-6,5.5-6c1.9,0,3.6,1,4.5,2.7l-2,1
			c-0.4-1-1.4-1.8-2.6-1.8c-2.1,0-3.2,2.2-3.2,4s1.1,4,3.2,4c1.4,0,2.5-1.2,2.6-2.6h-2.4v-1.8H359.3z"/>
	</g>
</g>
<g>
	<g>
		<path class="st8" d="M491.1,41.5c-0.6-0.8-1.5-1.2-2.5-1.2c-2.1,0-3.3,2-3.3,3.9c0,1.9,1.3,3.8,3.3,3.8c0.9,0,1.9-0.5,2.5-1.2v2.6
			c-0.8,0.4-1.7,0.7-2.6,0.7c-3.2,0-5.5-2.7-5.5-5.9c0-3.2,2.3-6,5.6-6c0.9,0,1.8,0.2,2.5,0.7V41.5z"/>
		<path class="st8" d="M495.7,47.9h3.1v1.9h-5.3V38.5h2.2V47.9z"/>
		<path class="st8" d="M500.4,38.5h2.2v6.3c0,1.4,0.1,3.4,2,3.4s2-2,2-3.4v-6.3h2.2v6.8c0,2.8-1.2,4.8-4.2,4.8c-3,0-4.2-2.1-4.2-4.8
			V38.5z"/>
		<path class="st8" d="M516.5,41c-0.4-0.6-1-0.9-1.7-0.9c-0.7,0-1.4,0.5-1.4,1.3c0,1.9,4.5,1.1,4.5,4.9c0,2.3-1.4,3.9-3.7,3.9
			c-1.6,0-2.7-0.9-3.5-2.2l1.4-1.4c0.3,0.9,1.1,1.6,2,1.6c0.9,0,1.5-0.8,1.5-1.6c0-1.2-1.1-1.5-2-1.8c-1.5-0.6-2.5-1.3-2.5-3.1
			c0-1.9,1.4-3.4,3.3-3.4c1,0,2.4,0.5,3.1,1.3L516.5,41z"/>
		<path class="st8" d="M523.7,49.8h-2.2v-9.4h-2.3v-1.9h6.8v1.9h-2.3V49.8z"/>
		<path class="st8" d="M529.9,40.4v2.5h3.5v1.9h-3.5v3.1h3.6v1.9h-5.8V38.5h5.8v1.9H529.9z"/>
		<path class="st8" d="M543.5,49.8h-2.7l-2.7-4.6h0v4.6h-2.2V38.5h3c2.2,0,3.8,1,3.8,3.4c0,1.4-0.8,2.9-2.3,3.1L543.5,49.8z
			 M538.1,43.7h0.3c1.2,0,2.1-0.4,2.1-1.7c0-1.4-0.9-1.7-2.1-1.7h-0.3V43.7z"/>
		<path class="st8" d="M547.4,49.8h-2.2V38.5h2.2V49.8z"/>
		<path class="st8" d="M549.9,38.2h1.6l6,7.9h0v-7.6h2.2V50h-1.6l-6-7.9h0v7.7h-2.2V38.2z"/>
		<path class="st8" d="M572.1,43.8v0.3c0,3.2-1.6,6-5.1,6c-3.3,0-5.4-2.8-5.4-5.9c0-3.2,2.1-6,5.5-6c1.9,0,3.6,1,4.5,2.7l-2,1
			c-0.4-1-1.4-1.8-2.6-1.8c-2.1,0-3.2,2.2-3.2,4s1.1,4,3.2,4c1.4,0,2.5-1.2,2.6-2.6h-2.4v-1.8H572.1z"/>
	</g>
</g>
<g>
	<g>
		<path class="st8" d="M476.5,122.2c-0.6-0.8-1.5-1.2-2.5-1.2c-2.1,0-3.3,2-3.3,3.9c0,1.9,1.3,3.8,3.3,3.8c0.9,0,1.9-0.5,2.5-1.2
			v2.6c-0.8,0.4-1.7,0.7-2.6,0.7c-3.2,0-5.5-2.7-5.5-5.9c0-3.2,2.3-6,5.6-6c0.9,0,1.8,0.2,2.5,0.7V122.2z"/>
		<path class="st8" d="M481.1,128.6h3.1v1.9h-5.3v-11.3h2.2V128.6z"/>
		<path class="st8" d="M488.1,128.1l-0.9,2.4h-2.3l4.4-11.6h1.7l4.3,11.6h-2.4l-0.9-2.4H488.1z M490,122.2L490,122.2l-1.3,4.1h2.7
			L490,122.2z"/>
		<path class="st8" d="M502.2,121.7c-0.4-0.6-1-0.9-1.7-0.9c-0.7,0-1.4,0.5-1.4,1.3c0,1.9,4.5,1.1,4.5,4.9c0,2.3-1.4,3.9-3.7,3.9
			c-1.6,0-2.7-0.9-3.5-2.2l1.4-1.4c0.3,0.9,1.1,1.6,2,1.6c0.9,0,1.5-0.8,1.5-1.6c0-1.2-1.1-1.5-2-1.8c-1.5-0.6-2.5-1.3-2.5-3.1
			c0-1.9,1.4-3.4,3.3-3.4c1,0,2.4,0.5,3.1,1.3L502.2,121.7z"/>
		<path class="st8" d="M511,121.7c-0.4-0.6-1-0.9-1.7-0.9c-0.7,0-1.4,0.5-1.4,1.3c0,1.9,4.5,1.1,4.5,4.9c0,2.3-1.4,3.9-3.7,3.9
			c-1.6,0-2.7-0.9-3.5-2.2l1.4-1.4c0.3,0.9,1.1,1.6,2,1.6c0.9,0,1.5-0.8,1.5-1.6c0-1.2-1.1-1.5-2-1.8c-1.5-0.6-2.5-1.3-2.5-3.1
			c0-1.9,1.4-3.4,3.3-3.4c1,0,2.4,0.5,3.1,1.3L511,121.7z"/>
		<path class="st8" d="M516.6,130.5h-2.2v-11.3h2.2V130.5z"/>
		<path class="st8" d="M521.3,121.1v2.5h3.2v1.9h-3.2v5h-2.2v-11.3h5.6v1.9H521.3z"/>
		<path class="st8" d="M529.2,130.5H527v-11.3h2.2V130.5z"/>
		<path class="st8" d="M539.3,122.2c-0.6-0.8-1.5-1.2-2.5-1.2c-2.1,0-3.3,2-3.3,3.9c0,1.9,1.3,3.8,3.3,3.8c0.9,0,1.9-0.5,2.5-1.2
			v2.6c-0.8,0.4-1.6,0.7-2.6,0.7c-3.2,0-5.5-2.7-5.5-5.9c0-3.2,2.3-6,5.6-6c0.9,0,1.8,0.2,2.5,0.7V122.2z"/>
		<path class="st8" d="M543.9,128.1l-0.9,2.4h-2.3l4.4-11.6h1.7l4.3,11.6h-2.4l-0.9-2.4H543.9z M545.8,122.2L545.8,122.2l-1.3,4.1
			h2.7L545.8,122.2z"/>
		<path class="st8" d="M555.1,130.5h-2.2v-9.4h-2.3v-1.9h6.8v1.9h-2.3V130.5z"/>
		<path class="st8" d="M561.3,130.5h-2.2v-11.3h2.2V130.5z"/>
		<path class="st8" d="M568.9,130.8c-3.5,0-5.6-2.6-5.6-6c0-3.4,2.2-5.9,5.6-5.9s5.6,2.6,5.6,5.9
			C574.5,128.2,572.3,130.8,568.9,130.8z M568.9,121.1c-2.1,0-3.3,1.8-3.3,3.7c0,1.7,0.9,3.9,3.3,3.9c2.4,0,3.3-2.1,3.3-3.9
			C572.2,122.9,571,121.1,568.9,121.1z"/>
		<path class="st8" d="M576.5,118.9h1.6l6,7.9h0v-7.6h2.2v11.5h-1.6l-6-7.9h0v7.7h-2.2V118.9z"/>
	</g>
</g>
<g>
	<g>
		<path class="st8" d="M489.4,227.8h-2.7l-2.7-4.6h0v4.6h-2.2v-11.3h3c2.2,0,3.8,1,3.8,3.4c0,1.4-0.8,2.9-2.3,3.1L489.4,227.8z
			 M484,221.7h0.3c1.2,0,2.1-0.4,2.1-1.7c0-1.4-0.9-1.7-2.1-1.7H484V221.7z"/>
		<path class="st8" d="M493.2,218.4v2.5h3.5v1.9h-3.5v3.1h3.6v1.9H491v-11.3h5.8v1.9H493.2z"/>
		<path class="st8" d="M509.2,221.8v0.3c0,3.2-1.6,6-5.1,6c-3.3,0-5.4-2.8-5.4-5.9c0-3.2,2.1-6,5.5-6c1.9,0,3.6,1,4.5,2.7l-2,1
			c-0.4-1-1.4-1.8-2.6-1.8c-2.1,0-3.2,2.2-3.2,4s1.1,4,3.2,4c1.4,0,2.5-1.2,2.6-2.6h-2.4v-1.8H509.2z"/>
		<path class="st8" d="M518.9,227.8h-2.7l-2.7-4.6h0v4.6h-2.2v-11.3h3c2.2,0,3.8,1,3.8,3.4c0,1.4-0.8,2.9-2.3,3.1L518.9,227.8z
			 M513.4,221.7h0.3c1.2,0,2.1-0.4,2.1-1.7c0-1.4-0.9-1.7-2.1-1.7h-0.3V221.7z"/>
		<path class="st8" d="M522.7,218.4v2.5h3.5v1.9h-3.5v3.1h3.6v1.9h-5.8v-11.3h5.8v1.9H522.7z"/>
		<path class="st8" d="M534.1,219c-0.4-0.6-1-0.9-1.7-0.9c-0.7,0-1.4,0.5-1.4,1.3c0,1.9,4.5,1.1,4.5,4.9c0,2.3-1.4,3.9-3.7,3.9
			c-1.6,0-2.7-0.9-3.5-2.2l1.4-1.4c0.3,0.9,1.1,1.7,2,1.7c0.9,0,1.5-0.8,1.5-1.6c0-1.2-1.1-1.5-2-1.8c-1.5-0.6-2.5-1.3-2.5-3.1
			c0-1.9,1.4-3.4,3.3-3.4c1,0,2.4,0.5,3.1,1.3L534.1,219z"/>
		<path class="st8" d="M542.8,219c-0.4-0.6-1-0.9-1.7-0.9c-0.7,0-1.4,0.5-1.4,1.3c0,1.9,4.5,1.1,4.5,4.9c0,2.3-1.4,3.9-3.7,3.9
			c-1.6,0-2.7-0.9-3.5-2.2l1.4-1.4c0.3,0.9,1.1,1.7,2,1.7c0.9,0,1.5-0.8,1.5-1.6c0-1.2-1.1-1.5-2-1.8c-1.5-0.6-2.5-1.3-2.5-3.1
			c0-1.9,1.4-3.4,3.3-3.4c1,0,2.4,0.5,3.1,1.3L542.8,219z"/>
		<path class="st8" d="M548.5,227.8h-2.2v-11.3h2.2V227.8z"/>
		<path class="st8" d="M556.1,228.1c-3.5,0-5.6-2.6-5.6-6c0-3.4,2.2-5.9,5.6-5.9s5.6,2.6,5.6,5.9
			C561.7,225.4,559.5,228.1,556.1,228.1z M556.1,218.3c-2.1,0-3.3,1.8-3.3,3.7c0,1.7,0.9,3.9,3.3,3.9c2.4,0,3.3-2.1,3.3-3.9
			C559.4,220.2,558.2,218.3,556.1,218.3z"/>
		<path class="st8" d="M563.7,216.2h1.6l6,7.9h0v-7.6h2.2V228h-1.6l-6-7.9h0v7.7h-2.2V216.2z"/>
	</g>
</g>
</svg>
